HIERARCHY
ROOT Hips
{
  OFFSET 53.3465 96.2024 -6.11515
  CHANNELS 6 Xposition Yposition Zposition Zrotation Xrotation Yrotation
  JOINT spine
  {
    OFFSET 0 7.96568 0.458067
    CHANNELS 3 Zrotation Xrotation Yrotation
    JOINT spine1
    {
      OFFSET 0 10.2431 0
      CHANNELS 3 Zrotation Xrotation Yrotation
      JOINT spine2
      {
        OFFSET 0 9.81475 0
        CHANNELS 3 Zrotation Xrotation Yrotation
        JOINT Neck
        {
          OFFSET 0 25.1986 1.20138
          CHANNELS 3 Zrotation Xrotation Yrotation
          JOINT Head
          {
            OFFSET 0 7.61315 0
            CHANNELS 3 Zrotation Xrotation Yrotation
            End Site
            {
              OFFSET 0 18.4281 -6.07733
            }
          }
        }
        JOINT RightShoulder
        {
          OFFSET -4.1327 10.5992 -0.575451
          CHANNELS 3 Zrotation Xrotation Yrotation
          JOINT RightArm
          {
            OFFSET 0 13.9018 0
            CHANNELS 3 Zrotation Xrotation Yrotation
            JOINT RightArmRoll
            {
              OFFSET 0 7.01788 0
              CHANNELS 3 Zrotation Xrotation Yrotation
              JOINT RightForeArm
              {
                OFFSET 0 20.4406 0
                CHANNELS 3 Zrotation Xrotation Yrotation
                JOINT RightForeArmRoll
                {
                  OFFSET 0 7.87515 0
                  CHANNELS 3 Zrotation Xrotation Yrotation
                  JOINT RightHand
                  {
                    OFFSET 0 15.8037 0
                    CHANNELS 3 Zrotation Xrotation Yrotation
                    End Site
                    {
                      OFFSET 0 0 0
                    }
                  }
                }
              }
            }
          }
        }
        JOINT LeftShoulder
        {
          OFFSET 4.1327 10.5992 -0.575451
          CHANNELS 3 Zrotation Xrotation Yrotation
          JOINT LeftArm
          {
            OFFSET 0 13.9018 0
            CHANNELS 3 Zrotation Xrotation Yrotation
            JOINT LeftArmRoll
            {
              OFFSET 0 7.01788 0
              CHANNELS 3 Zrotation Xrotation Yrotation
              JOINT LeftForeArm
              {
                OFFSET 0 20.4406 0
                CHANNELS 3 Zrotation Xrotation Yrotation
                JOINT LeftForeArmRoll
                {
                  OFFSET 0 7.87515 0
                  CHANNELS 3 Zrotation Xrotation Yrotation
                  JOINT LeftHand
                  {
                    OFFSET 0 15.8037 0
                    CHANNELS 3 Zrotation Xrotation Yrotation
                    End Site
                    {
                      OFFSET 0 0 0
                    }
                  }
                }
              }
            }
          }
        }
      }
    }
  }
  JOINT RightUpLeg
  {
    OFFSET -7.06048 -1.2947 -1.0861
    CHANNELS 3 Zrotation Xrotation Yrotation
    JOINT RightUpLegRoll
    {
      OFFSET 0 18.5308 0
      CHANNELS 3 Zrotation Xrotation Yrotation
      JOINT RightLeg
      {
        OFFSET 0 -22.9476 0
        CHANNELS 3 Zrotation Xrotation Yrotation
        JOINT RightLegRoll
        {
          OFFSET 0 23.0226 0
          CHANNELS 3 Zrotation Xrotation Yrotation
          JOINT RightFoot
          {
            OFFSET 0 19.1625 0
            CHANNELS 3 Zrotation Xrotation Yrotation
            JOINT RightToeBase
            {
              OFFSET 0 16.0188 0
              CHANNELS 3 Zrotation Xrotation Yrotation
              End Site
              {
                OFFSET 0.00678979 7.75781 -0.894207
              }
            }
          }
        }
      }
    }
  }
  JOINT LeftUpLeg
  {
    OFFSET 7.06048 -1.2947 -1.0861
    CHANNELS 3 Zrotation Xrotation Yrotation
    JOINT LeftUpLegRoll
    {
      OFFSET 0 18.5309 0
      CHANNELS 3 Zrotation Xrotation Yrotation
      JOINT LeftLeg
      {
        OFFSET 0 22.9475 0
        CHANNELS 3 Zrotation Xrotation Yrotation
        JOINT LeftLegRoll
        {
          OFFSET 0 23.2355 0
          CHANNELS 3 Zrotation Xrotation Yrotation
          JOINT LeftFoot
          {
            OFFSET 0 18.9496 0
            CHANNELS 3 Zrotation Xrotation Yrotation
            JOINT LeftToeBase
            {
              OFFSET 0 16.0188 0
              CHANNELS 3 Zrotation Xrotation Yrotation
              End Site
              {
                OFFSET -0.0304289 7.75781 -0.894207
              }
            }
          }
        }
      }
    }
  }
}
MOTION
Frames: 4
Frame Time: 0.00208333
55.0707 79.6588 -2.13354 3.32262 -2.38173 10.4849 0.503569 -0.442258 0.29102 1.00781 3.12042 0.520442 1.00282 4.76533 0.504002 -31.3014 18.9379 2.51205 24.8028 -14.29 -1.87849 9.22666 -12.6314 -9.99979 28.0373 0.646723 63.0132 2.28771e-005 -7.83978e-007 1.09539e-006 -8.44756 63.1443 9.06579 -6.13869e-006 -1.72473e-006 -3.01172 8.0289 -4.95144 0.697678 -33.5293 -8.2866 4.40546 -16.2454 30.2832 -88.9498 -7.68059e-006 -2.55235e-006 -1.90569e-006 22.1742 71.0539 -22.8671 9.89251e-006 -1.39278e-006 3 -8.0289 -4.95144 -0.697663 152.71 16.2424 6.92511 180 7.01316e-015 178.178 -155.47 48.0824 167.623 2.79087e-006 2.92989e-007 6.55053 -44.7553 82.3298 51.2691 8.18502 26.1727 -2.64599 -156.972 19.9746 -2.65903 4.5067e-006 -1.99009e-005 -1.79989 19.6332 -43.0134 8.53545 4.36697e-006 2.17909e-006 -3.85599 25.8508 75.3764 -28.4437 -8.20916 26.811 2.14911 
55.1148 79.6029 -2.14099 3.33648 -2.31763 10.5458 0.488653 -0.44717 0.28368 0.977985 3.11047 0.507582 0.973111 4.75539 0.49163 -31.1106 18.7451 2.40817 24.696 -14.287 -1.89249 9.36038 -12.6781 -10.0625 27.9299 0.518205 62.6531 2.28771e-005 -7.83978e-007 1.09539e-006 -8.30706 63.3252 8.94385 -6.13869e-006 -1.72473e-006 -3.01172 8.0289 -4.95144 0.697678 -33.4018 -8.28419 4.39704 -16.2704 30.3854 -89.0476 -7.68059e-006 -2.55235e-006 -1.90569e-006 22.2326 71.157 -22.9666 9.89251e-006 -1.39278e-006 3 -8.0289 -4.95144 -0.697663 152.663 16.2789 6.95558 180 7.01316e-015 178.178 -155.5 48.0652 167.646 2.79087e-006 2.9299e-007 6.53996 -44.5811 82.303 51.0787 8.18523 26.1865 -2.63353 -156.962 20.0531 -2.66089 4.5067e-006 -1.99009e-005 -1.79599 19.5807 -42.9073 8.50621 4.36697e-006 2.1791e-006 -3.80957 25.6877 75.2573 -28.2321 -8.20945 26.8275 2.13587 
55.1221 79.7156 -2.16099 3.35075 -2.25169 10.6095 0.474007 -0.454589 0.277329 0.948706 3.09552 0.49668 0.943924 4.74045 0.481209 -30.9105 18.5903 2.31598 24.5762 -14.3073 -1.90068 9.50323 -12.7256 -10.1251 27.8275 0.39462 62.2696 2.28771e-005 -7.83978e-007 1.09539e-006 -8.16338 63.495 8.81277 -6.13869e-006 -1.72473e-006 -3.01172 8.0289 -4.95144 0.697678 -33.2747 -8.26906 4.37577 -16.3388 30.49 -89.1262 -7.68059e-006 -2.55235e-006 -1.90569e-006 22.2956 71.2632 -23.0721 9.89251e-006 -1.39278e-006 3 -8.0289 -4.95144 -0.697663 152.617 16.2849 6.99415 180 7.01317e-015 178.179 -155.563 48.0091 167.697 2.79087e-006 2.9299e-007 6.52712 -44.4502 82.28 50.9302 8.18511 26.1923 -2.62814 -156.956 20.1101 -2.66836 4.5067e-006 -1.99009e-005 -1.7922 19.5071 -42.7704 8.46168 4.36697e-006 2.17912e-006 -3.75968 25.5313 75.1377 -28.0246 -8.20958 26.8445 2.12173 
55.1608 79.6593 -2.15628 3.36725 -2.18166 10.6787 0.458551 -0.464908 0.271613 0.917807 3.07478 0.487166 0.913094 4.71972 0.472204 -30.6947 18.4788 2.23379 24.4435 -14.3595 -1.90226 9.66001 -12.7744 -10.1882 27.7287 0.267691 61.8536 2.28771e-005 -7.83978e-007 1.09539e-006 -8.01271 63.6612 8.66962 -6.13869e-006 -1.72473e-006 -3.01172 8.0289 -4.95144 0.697678 -33.14 -8.24113 4.34125 -16.4548 30.5996 -89.1842 -7.68059e-006 -2.55235e-006 -1.90569e-006 22.3629 71.3728 -23.1837 9.89251e-006 -1.39278e-006 3 -8.0289 -4.95144 -0.697663 152.568 16.2617 7.04398 180 7.01317e-015 178.181 -155.66 47.9142 167.776 2.79087e-006 2.92989e-007 6.51108 -44.3475 82.2587 50.8074 8.18467 26.1909 -2.62897 -156.955 20.1488 -2.67928 4.5067e-006 -1.99009e-005 -1.78819 19.411 -42.5983 8.40053 4.36697e-006 2.17913e-006 -3.70334 25.3721 75.0096 -27.8087 -8.20962 26.8674 2.10222 
